<?xml version="1.0" encoding="UTF-8" standalone="no"?>
<!-- Created with Inkscape (http://www.inkscape.org/) -->

<svg
   xmlns:dc="http://purl.org/dc/elements/1.1/"
   xmlns:cc="http://creativecommons.org/ns#"
   xmlns:rdf="http://www.w3.org/1999/02/22-rdf-syntax-ns#"
   xmlns:svg="http://www.w3.org/2000/svg"
   xmlns="http://www.w3.org/2000/svg"
   xmlns:sodipodi="http://sodipodi.sourceforge.net/DTD/sodipodi-0.dtd"
   xmlns:inkscape="http://www.inkscape.org/namespaces/inkscape"
   width="24.417847mm"
   height="20.090336mm"
   viewBox="0 0 24.417847 20.090336"
   version="1.1"
   id="svg8"
   inkscape:version="0.92.4 (5da689c313, 2019-01-14)"
   sodipodi:docname="heart-icon-dogs.svg">
  <defs
     id="defs2" />
  <sodipodi:namedview
     id="base"
     pagecolor="#ffffff"
     bordercolor="#666666"
     borderopacity="1.0"
     inkscape:pageopacity="0.0"
     inkscape:pageshadow="2"
     inkscape:zoom="0.35"
     inkscape:cx="823.28683"
     inkscape:cy="-42.205252"
     inkscape:document-units="mm"
     inkscape:current-layer="layer1"
     showgrid="false"
     fit-margin-top="0"
     fit-margin-left="0"
     fit-margin-right="0"
     fit-margin-bottom="0"
     inkscape:window-width="1920"
     inkscape:window-height="1001"
     inkscape:window-x="-9"
     inkscape:window-y="-9"
     inkscape:window-maximized="1" />
  <metadata
     id="metadata5">
    <rdf:RDF>
      <cc:Work
         rdf:about="">
        <dc:format>image/svg+xml</dc:format>
        <dc:type
           rdf:resource="http://purl.org/dc/dcmitype/StillImage" />
        <dc:title></dc:title>
      </cc:Work>
    </rdf:RDF>
  </metadata>
  <g
     inkscape:label="Capa 1"
     inkscape:groupmode="layer"
     id="layer1"
     transform="translate(111.99464,-117.57619)">
    <g
       id="g21"
       transform="matrix(0.20996201,0,0,0.20996201,-72.644377,80.985562)">
      <path
         style="fill:#fccfd0;stroke-width:0.26458332"
         d="m -132.04598,269.88635 c -2.78458,-0.70676 -4.25726,-1.4587 -8.74626,-4.4658 -17.34779,-11.62097 -31.07882,-24.27746 -38.6083,-35.58692 -7.4508,-11.1913 -9.59128,-20.97922 -6.90372,-31.56905 2.52556,-9.95147 9.10954,-17.78623 18.19616,-21.65293 6.49641,-2.76447 14.91778,-3.10667 21.56229,-0.87619 2.84406,0.95472 5.584,2.31567 8.24359,4.09464 2.29257,1.53347 6.56676,5.45678 8.19863,7.52559 l 0.8251,1.04602 0.97144,-1.17831 c 4.28341,-5.19557 10.41671,-9.52263 16.26325,-11.47379 5.09686,-1.70096 12.099527,-1.95073 17.185152,-0.61294 13.145388,3.45792 22.007942,14.15125 23.553948,28.41958 0.843885,7.78837 -1.180402,15.37919 -6.432484,24.12102 -7.005124,11.65968 -21.52765,25.37088 -39.908886,37.67932 -5.87892,3.93664 -7.11651,4.44704 -11.09262,4.5748 -1.52797,0.0491 -3.01625,0.0288 -3.30729,-0.045 z"
         id="path35"
         inkscape:connector-curvature="0" />
      <path
         style="fill:#faadb0;stroke-width:0.26458332"
         d="m -132.04598,269.62724 c -2.8603,-0.69641 -5.15997,-1.96651 -11.37709,-6.28352 -17.00128,-11.80528 -29.98208,-24.27916 -37.0912,-35.64274 -2.73717,-4.37522 -5.09109,-10.02316 -6.06126,-14.54321 -0.65239,-3.03952 -0.65909,-9.26803 -0.0135,-12.52726 2.665,-13.45365 11.7641,-22.94082 24.53038,-25.5766 2.37103,-0.48953 3.33925,-0.55079 6.8616,-0.43411 4.67204,0.15475 7.23722,0.68083 10.84559,2.22427 5.29356,2.26425 9.58918,5.47774 13.7141,10.25935 l 1.36948,1.5875 1.37132,-1.5875 c 4.99114,-5.77796 11.42985,-9.99866 17.81097,-11.67543 3.85664,-1.01342 9.71675,-1.17383 13.608479,-0.37252 12.758837,2.62704 21.896286,12.15561 24.525262,25.57504 0.643787,3.28616 0.640199,9.51813 -0.0072,12.52726 -0.973717,4.52579 -3.326609,10.17018 -6.062403,14.54321 -7.110388,11.36559 -19.944055,23.70012 -37.091208,35.64861 -7.96974,5.55349 -9.3665,6.20191 -13.62604,6.32573 -1.52797,0.0444 -3.01625,0.0228 -3.3073,-0.0481 z"
         id="path33"
         inkscape:connector-curvature="0" />
      <path
         style="fill:#f98d91;stroke-width:0.26458332"
         d="m -131.55738,269.49605 c -2.5013,-0.41789 -4.38583,-1.34795 -9.06992,-4.47626 -10.44375,-6.97494 -18.8234,-13.75377 -26.63459,-21.54642 -7.7861,-7.76762 -12.40156,-13.83297 -15.71465,-20.6512 -3.0586,-6.29451 -4.11724,-10.98578 -3.8809,-17.19792 0.35135,-9.23496 3.59643,-16.67624 9.87624,-22.64712 4.40581,-4.18908 9.68028,-6.85682 15.69876,-7.94018 2.71958,-0.48955 8.33687,-0.41265 10.98021,0.15031 7.3979,1.57554 14.21621,5.71002 19.15316,11.61409 0.92987,1.11203 1.77341,2.02186 1.87453,2.02186 0.10112,0 1.00719,-0.96646 2.0135,-2.14768 3.38944,-3.97863 8.13315,-7.5058 12.80125,-9.51833 11.13739,-4.80159 23.886809,-2.62116 32.630912,5.5806 5.00897,4.69829 8.088294,10.20915 9.609738,17.19791 0.609462,2.79957 0.690896,10.61563 0.136451,13.09688 -1.600547,7.16274 -5.462169,14.63311 -11.420279,22.0927 -3.0379,3.80348 -12.241019,12.953 -17.057602,16.95827 -8.01683,6.66646 -20.47852,15.47268 -23.48973,16.59932 -1.54487,0.57801 -4.32471,1.12052 -5.48214,1.0699 -0.36381,-0.0159 -1.27503,-0.13144 -2.02494,-0.25673 z"
         id="path31"
         inkscape:connector-curvature="0" />
      <path
         style="fill:#f97d82;stroke-width:0.26458332"
         d="m -132.76759,269.12616 c -2.08247,-0.52743 -3.45762,-1.26705 -7.82132,-4.20672 -22.9758,-15.47798 -38.18964,-31.30808 -43.83406,-45.60962 -2.95642,-7.49083 -3.17044,-15.7564 -0.60786,-23.47515 5.38694,-16.22597 22.52686,-24.83429 38.67512,-19.42413 5.82397,1.95121 11.6473,6.13183 15.94282,11.44548 0.45225,0.55946 0.98999,0.97618 1.19497,0.92605 0.20498,-0.0501 1.14895,-0.98412 2.0977,-2.07552 2.04526,-2.35277 5.13353,-5.07604 7.59631,-6.69853 10.74562,-7.07925 24.329064,-6.93265 34.706048,0.37455 11.448001,8.06139 16.105234,24.0606 11.061427,37.99985 -5.059905,13.98372 -19.762393,29.71282 -42.282255,45.23464 -5.04299,3.47587 -6.68598,4.45837 -8.59896,5.14211 -2.0469,0.7316 -5.98788,0.9095 -8.12994,0.36699 z"
         id="path29"
         inkscape:connector-curvature="0" />
      <path
         style="fill:#f86a70;stroke-width:0.26458332"
         d="m -131.55738,269.23147 c -0.74992,-0.12529 -2.05083,-0.48496 -2.89091,-0.79928 -1.88336,-0.70465 -8.44907,-5.06475 -14.93058,-9.91496 -22.0733,-16.51777 -34.41652,-32.04603 -36.93563,-46.46647 -0.55616,-3.18366 -0.36467,-9.36686 0.39158,-12.64422 2.94329,-12.75535 12.28552,-21.89365 24.64048,-24.1026 2.83375,-0.50665 8.10881,-0.44519 10.84791,0.12639 7.05878,1.47297 12.4097,4.57554 18.02768,10.45281 l 3.14568,3.29087 2.92879,-3.08446 c 5.69093,-5.99341 11.14045,-9.17958 18.23119,-10.65922 2.7391,-0.57158 8.01416,-0.63304 10.847912,-0.12639 12.354953,2.20895 21.697187,11.34725 24.640475,24.1026 0.75415,3.26826 0.947669,9.46103 0.394578,12.62686 -2.342721,13.40958 -13.088854,27.68299 -32.410155,43.04837 -6.96013,5.53509 -17.01855,12.43731 -19.45058,13.34725 -1.5204,0.56885 -4.30387,1.10946 -5.45348,1.05917 -0.36381,-0.0159 -1.27503,-0.13144 -2.02494,-0.25672 z"
         id="path27"
         inkscape:connector-curvature="0" />
      <path
         style="fill:#f85c61;stroke-width:0.26458332"
         d="m -131.7814,269.09306 c -3.63968,-0.92694 -8.16442,-3.69622 -17.59479,-10.76858 -19.618,-14.71262 -31.77005,-28.9356 -35.7215,-41.80908 -1.78589,-5.81827 -1.92641,-12.0206 -0.40797,-18.00647 1.49924,-5.91018 3.84389,-10.13717 7.95134,-14.33486 4.1193,-4.20979 8.4053,-6.71616 14.11035,-8.25147 2.28742,-0.61558 3.04882,-0.68939 7.18861,-0.69685 3.87742,-0.007 4.99877,0.0841 6.89713,0.56045 7.13626,1.79055 12.6531,5.33518 18.4376,11.84639 l 1.64537,1.85208 0.96127,-1.05833 c 5.61799,-6.1853 9.14878,-8.89481 14.45109,-11.0897 4.17037,-1.72633 6.33241,-2.12035 11.58254,-2.11089 4.139788,0.007 4.901185,0.0813 7.188606,0.69685 9.350835,2.51644 17.069225,9.22041 20.525188,17.82759 2.987749,7.44108 3.374078,15.4512 1.102098,22.85081 -4.513622,14.70039 -20.553091,31.94053 -44.898212,48.25915 -5.27842,3.53814 -6.74147,4.14093 -10.37601,4.27497 -1.38245,0.051 -2.75167,0.0321 -3.04271,-0.0421 z"
         id="path25"
         inkscape:connector-curvature="0" />
      <path
         style="fill:#f7585e;stroke-width:0.26458332"
         d="m -131.13301,268.97573 c -0.80755,-0.11884 -2.16799,-0.47786 -3.0232,-0.79784 -1.90823,-0.71396 -8.44424,-5.05085 -14.95807,-9.92524 -21.52513,-16.10757 -33.60008,-31.02826 -36.80962,-45.48465 -0.54645,-2.46133 -0.46624,-9.78757 0.13761,-12.56771 2.48428,-11.43778 10.03826,-20.12777 20.44002,-23.51391 3.32931,-1.08381 5.8446,-1.46416 9.48779,-1.4347 6.04096,0.0489 11.4252,1.74782 16.77021,5.29172 2.33919,1.55096 6.95111,5.80838 8.3652,7.72221 1.06765,1.44495 1.84458,1.44388 2.91042,-0.004 1.37566,-1.86875 6.03791,-6.16433 8.38689,-7.72729 5.27143,-3.50749 10.74559,-5.23409 16.74852,-5.28264 3.643186,-0.0295 6.158479,0.35089 9.487787,1.4347 10.402368,3.38633 17.984088,12.11043 20.434892,23.51391 0.601882,2.80053 0.686072,10.13726 0.144216,12.56771 -3.221074,14.44788 -15.293292,29.38256 -36.699035,45.40079 -5.07891,3.80063 -11.99156,8.54647 -13.74874,9.43912 -2.3457,1.19163 -5.56562,1.73706 -8.07489,1.36781 z"
         id="path23"
         inkscape:connector-curvature="0" />
    </g>
  </g>
</svg>
